<svg width="18" height="18" viewBox="0 0 18 18" fill="none" xmlns="http://www.w3.org/2000/svg">
<path d="M8.82473 5.85211C7.28138 5.85211 6.02189 7.11161 6.02189 8.65496C6.02189 10.1983 7.28138 11.4578 8.82473 11.4578C10.3681 11.4578 11.6276 10.1983 11.6276 8.65496C11.6276 7.11161 10.3681 5.85211 8.82473 5.85211ZM17.2312 8.65496C17.2312 7.49429 17.2417 6.34414 17.1765 5.18557C17.1113 3.83987 16.8043 2.64556 15.8203 1.66151C14.8341 0.675363 13.6419 0.370477 12.2962 0.305295C11.1356 0.240112 9.9854 0.250625 8.82684 0.250625C7.66617 0.250625 6.51601 0.240112 5.35745 0.305295C4.01174 0.370477 2.81743 0.677465 1.83339 1.66151C0.847238 2.64766 0.542352 3.83987 0.47717 5.18557C0.411987 6.34624 0.4225 7.4964 0.4225 8.65496C0.4225 9.81353 0.411987 10.9658 0.47717 12.1244C0.542352 13.4701 0.849341 14.6644 1.83339 15.6484C2.81953 16.6346 4.01174 16.9394 5.35745 17.0046C6.51812 17.0698 7.66827 17.0593 8.82684 17.0593C9.98751 17.0593 11.1377 17.0698 12.2962 17.0046C13.6419 16.9394 14.8362 16.6325 15.8203 15.6484C16.8064 14.6623 17.1113 13.4701 17.1765 12.1244C17.2438 10.9658 17.2312 9.81563 17.2312 8.65496ZM8.82473 12.9675C6.43821 12.9675 4.51218 11.0415 4.51218 8.65496C4.51218 6.26844 6.43821 4.3424 8.82473 4.3424C11.2113 4.3424 13.1373 6.26844 13.1373 8.65496C13.1373 11.0415 11.2113 12.9675 8.82473 12.9675ZM13.3139 5.17296C12.7567 5.17296 12.3067 4.72299 12.3067 4.16578C12.3067 3.60858 12.7567 3.15861 13.3139 3.15861C13.8711 3.15861 14.3211 3.60858 14.3211 4.16578C14.3213 4.29809 14.2953 4.42913 14.2448 4.55141C14.1942 4.67368 14.12 4.78477 14.0265 4.87833C13.9329 4.97189 13.8218 5.04607 13.6995 5.09663C13.5773 5.14718 13.4462 5.17312 13.3139 5.17296Z" fill="white"/>
</svg>
