<svg width="119" height="119" viewBox="0 0 119 119" fill="none" xmlns="http://www.w3.org/2000/svg">
<path d="M56.7291 39.7717C55.6683 39.7704 54.6512 39.3485 53.9009 38.5985C53.1506 37.8485 52.7283 36.8316 52.7266 35.7707V23.0988C52.7268 22.3542 52.9349 21.6244 53.3274 20.9916C53.72 20.3588 54.2814 19.8482 54.9485 19.5173C55.6156 19.1863 56.3618 19.0482 57.1031 19.1184C57.8445 19.1886 58.5515 19.4645 59.1445 19.9148L67.4826 26.2507C67.9728 26.624 68.3703 27.1055 68.6438 27.6577C68.9174 28.2099 69.0597 28.8178 69.0597 29.434C69.0597 30.0502 68.9174 30.6581 68.6438 31.2103C68.3703 31.7624 67.9728 32.2439 67.4826 32.6172L59.1445 38.9516C58.451 39.4822 57.6024 39.7704 56.7291 39.7717ZM56.7291 22.3125C56.6056 22.3137 56.484 22.3434 56.3738 22.3993C56.2417 22.4619 56.1304 22.5611 56.0532 22.6851C55.9759 22.8091 55.9359 22.9527 55.938 23.0988V35.7707C55.9383 35.9161 55.9791 36.0586 56.0559 36.1821C56.1328 36.3055 56.2425 36.4051 56.3729 36.4696C56.5032 36.5341 56.6489 36.561 56.7937 36.5471C56.9385 36.5333 57.0765 36.4794 57.1923 36.3915L65.5303 30.0571C65.6263 29.9842 65.7041 29.8901 65.7577 29.7821C65.8112 29.6742 65.8391 29.5553 65.8391 29.4348C65.8391 29.3143 65.8112 29.1954 65.7577 29.0874C65.7041 28.9795 65.6263 28.8853 65.5303 28.8124L57.1923 22.4765C57.0621 22.3722 56.9008 22.3145 56.734 22.3125H56.7291Z" fill="#FF3E3E"/>
<path d="M74.7302 18.847C74.4911 18.8475 74.2548 18.7947 74.0386 18.6923C73.8225 18.5899 73.6319 18.4406 73.4807 18.2553C72.5778 17.1364 71.5433 16.1305 70.3996 15.2593C70.0584 15.0034 69.8328 14.6225 69.7725 14.2003C69.7122 13.7781 69.8221 13.3492 70.078 13.008C70.3339 12.6668 70.7148 12.4412 71.137 12.3809C71.5593 12.3206 71.9881 12.4305 72.3293 12.6864C73.6805 13.7153 74.9029 14.9031 75.9701 16.2242C76.1622 16.4599 76.2837 16.7451 76.3203 17.047C76.3569 17.3489 76.3071 17.6549 76.1768 17.9296C76.0465 18.2044 75.841 18.4365 75.5841 18.5992C75.3272 18.7619 75.0295 18.8483 74.7254 18.8486L74.7302 18.847Z" fill="#FF3E3E"/>
<path d="M59.5 50.5428C53.9023 50.5451 48.5328 48.3237 44.573 44.3671C40.6131 40.4106 38.3871 35.043 38.3848 29.4452C38.3824 23.8475 40.6039 18.478 44.5604 14.5181C48.517 10.5583 53.8846 8.3323 59.4823 8.32996L59.5 11.5462H59.484C55.9463 11.5509 52.4895 12.6044 49.5504 14.5735C46.6114 16.5425 44.3221 19.3388 42.972 22.6087C41.6219 25.8785 41.2715 29.4753 41.9652 32.9443C42.6588 36.4133 44.3654 39.5988 46.8692 42.098C49.3729 44.5973 52.5614 46.2981 56.0317 46.9855C59.5019 47.673 63.098 47.3162 66.3655 45.9601C69.6329 44.6041 72.425 42.3098 74.3888 39.3673C76.3526 36.4247 77.3999 32.966 77.3983 29.4283C77.3983 29.2981 77.3983 29.1694 77.3886 29.0408C77.3672 28.829 77.388 28.6151 77.4498 28.4114C77.5117 28.2078 77.6133 28.0184 77.7489 27.8543C77.8845 27.6903 78.0513 27.5548 78.2397 27.4556C78.428 27.3565 78.6342 27.2958 78.8462 27.2769C79.0582 27.2581 79.2719 27.2815 79.4748 27.3459C79.6776 27.4102 79.8657 27.5142 80.0281 27.6518C80.1905 27.7894 80.324 27.9579 80.4208 28.1475C80.5176 28.337 80.5758 28.5439 80.592 28.7561C80.6129 28.9797 80.6145 29.2048 80.6145 29.4283C80.6081 35.0263 78.3815 40.3931 74.4232 44.3515C70.4648 48.3098 65.098 50.5364 59.5 50.5428Z" fill="#FF3E3E"/>
<path d="M59.5002 83.0475C59.0737 83.0475 58.6647 82.8781 58.3631 82.5765C58.0615 82.2749 57.8921 81.8659 57.8921 81.4394V48.8864C57.8921 48.4599 58.0615 48.0509 58.3631 47.7493C58.6647 47.4477 59.0737 47.2783 59.5002 47.2783C59.9267 47.2783 60.3357 47.4477 60.6373 47.7493C60.9389 48.0509 61.1083 48.4599 61.1083 48.8864V81.4394C61.1083 81.8659 60.9389 82.2749 60.6373 82.5765C60.3357 82.8781 59.9267 83.0475 59.5002 83.0475Z" fill="#FF3E3E"/>
<path d="M100.362 83.0475C99.9353 83.0475 99.5263 82.8781 99.2247 82.5765C98.9231 82.2749 98.7537 81.8659 98.7537 81.4394V68.3864C98.7537 67.5334 98.4148 66.7154 97.8117 66.1122C97.2085 65.509 96.3905 65.1702 95.5375 65.1702H23.4637C22.6107 65.1702 21.7926 65.509 21.1895 66.1122C20.5863 66.7154 20.2475 67.5334 20.2475 68.3864V81.4394C20.2475 81.8659 20.078 82.2749 19.7765 82.5765C19.4749 82.8781 19.0659 83.0475 18.6394 83.0475C18.2129 83.0475 17.8038 82.8781 17.5023 82.5765C17.2007 82.2749 17.0312 81.8659 17.0312 81.4394V68.3864C17.0312 66.6804 17.709 65.0443 18.9153 63.838C20.1216 62.6317 21.7577 61.954 23.4637 61.954H95.5375C97.2435 61.954 98.8796 62.6317 100.086 63.838C101.292 65.0443 101.97 66.6804 101.97 68.3864V81.4394C101.97 81.8659 101.8 82.2749 101.499 82.5765C101.197 82.8781 100.788 83.0475 100.362 83.0475Z" fill="#FF3E3E"/>
<path d="M100.362 110.675C97.3121 110.675 94.3304 109.77 91.7943 108.076C89.2582 106.381 87.2816 103.973 86.1143 101.155C84.9471 98.3367 84.6417 95.2359 85.2368 92.2444C85.8318 89.2529 87.3006 86.505 89.4574 84.3482C91.6141 82.1915 94.362 80.7227 97.3536 80.1276C100.345 79.5326 103.446 79.838 106.264 81.0052C109.082 82.1724 111.49 84.1491 113.185 86.6852C114.879 89.2213 115.784 92.2029 115.784 95.2531C115.78 99.3419 114.154 103.262 111.262 106.153C108.371 109.044 104.451 110.671 100.362 110.675ZM100.362 83.0475C97.9482 83.0475 95.5883 83.7634 93.5812 85.1045C91.574 86.4457 90.0096 88.3519 89.0857 90.5822C88.1619 92.8125 87.9202 95.2666 88.3912 97.6342C88.8621 100.002 90.0246 102.177 91.7316 103.884C93.4385 105.591 95.6134 106.753 97.981 107.224C100.349 107.695 102.803 107.453 105.033 106.529C107.263 105.606 109.17 104.041 110.511 102.034C111.852 100.027 112.568 97.6671 112.568 95.2531C112.563 92.0173 111.276 88.9152 108.988 86.6271C106.7 84.3391 103.598 83.0518 100.362 83.0475Z" fill="#FF3E3E"/>
<path d="M112.064 104.205C111.83 104.206 111.598 104.155 111.386 104.056C111.173 103.957 110.985 103.813 110.834 103.634C109.547 102.109 107.944 100.884 106.134 100.043C104.325 99.202 102.354 98.7663 100.359 98.7663C98.3635 98.7663 96.3924 99.202 94.583 100.043C92.7737 100.884 91.1698 102.109 89.8834 103.634C89.6081 103.96 89.2146 104.163 88.7895 104.199C88.3645 104.235 87.9426 104.1 87.6168 103.825C87.2909 103.55 87.0878 103.156 87.052 102.731C87.0163 102.306 87.1509 101.884 87.4262 101.558C89.0145 99.6762 90.9946 98.1633 93.2282 97.1256C95.4618 96.0878 97.8949 95.5502 100.358 95.5502C102.821 95.5502 105.254 96.0878 107.487 97.1256C109.721 98.1633 111.701 99.6762 113.289 101.558C113.487 101.792 113.614 102.078 113.656 102.382C113.697 102.686 113.65 102.995 113.521 103.273C113.392 103.551 113.187 103.787 112.929 103.952C112.671 104.117 112.371 104.205 112.064 104.205Z" fill="#FF3E3E"/>
<path d="M100.357 98.7106C99.0591 98.7106 97.7902 98.3256 96.7109 97.6045C95.6317 96.8833 94.7905 95.8582 94.2938 94.659C93.7972 93.4597 93.6673 92.1401 93.9207 90.867C94.174 89.5939 94.7992 88.4246 95.7172 87.5068C96.6352 86.5891 97.8047 85.9642 99.0778 85.7111C100.351 85.4581 101.671 85.5883 102.87 86.0852C104.069 86.5822 105.094 87.4236 105.815 88.503C106.536 89.5825 106.92 90.8515 106.92 92.1495C106.918 93.8894 106.226 95.5575 104.996 96.7876C103.765 98.0177 102.097 98.7093 100.357 98.7106ZM100.357 88.803C99.6951 88.803 99.0479 88.9994 98.4974 89.3674C97.947 89.7353 97.5181 90.2582 97.2649 90.87C97.0118 91.4818 96.9458 92.1549 97.0753 92.8041C97.2048 93.4534 97.524 94.0497 97.9925 94.5175C98.461 94.9853 99.0578 95.3037 99.7072 95.4323C100.357 95.5608 101.03 95.4939 101.641 95.2399C102.253 94.9858 102.775 94.5562 103.142 94.0052C103.509 93.4542 103.705 92.8068 103.704 92.1447C103.701 91.2582 103.348 90.4088 102.721 89.7824C102.094 89.1561 101.244 88.8039 100.357 88.803Z" fill="#FF3E3E"/>
<path d="M59.4999 110.675C56.4498 110.675 53.4681 109.77 50.932 108.076C48.3959 106.381 46.4193 103.973 45.252 101.155C44.0848 98.3367 43.7794 95.2359 44.3745 92.2444C44.9695 89.2529 46.4383 86.505 48.5951 84.3482C50.7518 82.1915 53.4997 80.7227 56.4913 80.1276C59.4828 79.5326 62.5836 79.838 65.4015 81.0052C68.2195 82.1724 70.628 84.1491 72.3226 86.6852C74.0172 89.2213 74.9216 92.2029 74.9216 95.2531C74.9174 99.3419 73.2912 103.262 70.4 106.153C67.5088 109.044 63.5887 110.671 59.4999 110.675ZM59.4999 83.0475C57.0859 83.0475 54.726 83.7634 52.7189 85.1045C50.7117 86.4457 49.1473 88.3519 48.2234 90.5822C47.2996 92.8125 47.0579 95.2666 47.5289 97.6342C47.9998 100.002 49.1623 102.177 50.8693 103.884C52.5762 105.591 54.7511 106.753 57.1187 107.224C59.4864 107.695 61.9405 107.453 64.1708 106.529C66.401 105.606 68.3073 104.041 69.6484 102.034C70.9896 100.027 71.7054 97.6671 71.7054 95.2531C71.7012 92.0173 70.4139 88.9152 68.1258 86.6271C65.8378 84.3391 62.7357 83.0518 59.4999 83.0475Z" fill="#FF3E3E"/>
<path d="M71.202 104.205C70.9681 104.205 70.7369 104.154 70.5247 104.056C70.3125 103.957 70.1244 103.813 69.9734 103.635C68.6866 102.11 67.0823 100.884 65.2728 100.043C63.4632 99.2027 61.4919 98.7672 59.4966 98.7672C57.5013 98.7672 55.53 99.2027 53.7205 100.043C51.9109 100.884 50.3067 102.11 49.0198 103.635C48.7417 103.951 48.3507 104.145 47.9309 104.176C47.5111 104.207 47.0959 104.072 46.7745 103.8C46.453 103.528 46.2509 103.141 46.2116 102.722C46.1723 102.303 46.2989 101.885 46.5642 101.558C48.1527 99.6762 50.1329 98.1633 52.3666 97.1256C54.6003 96.0878 57.0336 95.5502 59.4966 95.5502C61.9596 95.5502 64.3929 96.0878 66.6266 97.1256C68.8603 98.1633 70.8405 99.6762 72.429 101.558C72.6271 101.793 72.7542 102.078 72.7952 102.382C72.8362 102.686 72.7894 102.995 72.6605 103.274C72.5315 103.552 72.3257 103.787 72.0673 103.952C71.8089 104.118 71.5087 104.205 71.202 104.205Z" fill="#FF3E3E"/>
<path d="M59.4998 98.7106C58.2017 98.7109 56.9327 98.3262 55.8532 97.6053C54.7737 96.8843 53.9323 95.8593 53.4354 94.6601C52.9385 93.4608 52.8084 92.1412 53.0616 90.868C53.3147 89.5948 53.9398 88.4253 54.8577 87.5074C55.7756 86.5895 56.9451 85.9644 58.2183 85.7112C59.4915 85.4581 60.8112 85.5882 62.0104 86.0851C63.2097 86.582 64.2346 87.4234 64.9556 88.5029C65.6766 89.5823 66.0613 90.8514 66.0609 92.1495C66.0592 93.8891 65.3674 95.5569 64.1374 96.787C62.9073 98.0171 61.2394 98.7089 59.4998 98.7106ZM59.4998 88.803C58.8379 88.8027 58.1907 88.9987 57.6402 89.3662C57.0897 89.7338 56.6605 90.2563 56.407 90.8678C56.1534 91.4792 56.0869 92.1521 56.2159 92.8014C56.3448 93.4506 56.6634 94.0471 57.1314 94.5153C57.5993 94.9834 58.1956 95.3023 58.8448 95.4316C59.494 95.5608 60.1669 95.4946 60.7785 95.2414C61.3901 94.9882 61.9128 94.5592 62.2806 94.0089C62.6484 93.4585 62.8447 92.8115 62.8447 92.1495C62.8439 91.2625 62.4912 90.4121 61.8642 89.7847C61.2371 89.1573 60.3868 88.8043 59.4998 88.803Z" fill="#FF3E3E"/>
<path d="M18.6379 110.675C15.5879 110.675 12.6064 109.77 10.0705 108.075C7.53462 106.38 5.55822 103.972 4.39123 101.154C3.22424 98.3356 2.91907 95.2349 3.5143 92.2434C4.10953 89.252 5.57844 86.5043 7.73528 84.3477C9.89211 82.1911 12.64 80.7224 15.6315 80.1275C18.623 79.5326 21.7237 79.8381 24.5416 81.0054C27.3594 82.1727 29.7679 84.1493 31.4624 86.6854C33.1569 89.2214 34.0613 92.203 34.0613 95.2531C34.057 99.3421 32.4307 103.262 29.5391 106.154C26.6475 109.045 22.727 110.671 18.6379 110.675ZM18.6379 83.0475C16.224 83.0478 13.8643 83.764 11.8573 85.1053C9.85035 86.4467 8.28619 88.353 7.36263 90.5833C6.43906 92.8136 6.19758 95.2677 6.66872 97.6352C7.13985 100.003 8.30245 102.177 10.0095 103.884C11.7165 105.591 13.8913 106.753 16.2589 107.224C18.6265 107.695 21.0806 107.453 23.3108 106.529C25.5409 105.606 27.4471 104.041 28.7882 102.034C30.1293 100.027 30.8451 97.667 30.8451 95.2531C30.8408 92.017 29.5533 88.9147 27.2649 86.6266C24.9765 84.3385 21.874 83.0514 18.6379 83.0475Z" fill="#FF3E3E"/>
<path d="M30.3402 104.205C30.1062 104.205 29.8751 104.154 29.6629 104.056C29.4507 103.957 29.2625 103.813 29.1116 103.635C27.8247 102.11 26.2205 100.884 24.4109 100.043C22.6014 99.2027 20.6301 98.7672 18.6348 98.7672C16.6395 98.7672 14.6682 99.2027 12.8587 100.043C11.0491 100.884 9.44486 102.11 8.15798 103.635C7.87985 103.951 7.48891 104.145 7.06911 104.176C6.6493 104.207 6.2341 104.072 5.91265 103.8C5.59119 103.528 5.38912 103.141 5.34981 102.722C5.3105 102.303 5.43709 101.885 5.7024 101.558C7.29088 99.6762 9.27112 98.1633 11.5048 97.1256C13.7385 96.0878 16.1718 95.5502 18.6348 95.5502C21.0978 95.5502 23.5311 96.0878 25.7648 97.1256C27.9985 98.1633 29.9787 99.6762 31.5672 101.558C31.7653 101.793 31.8923 102.078 31.9333 102.382C31.9743 102.686 31.9276 102.995 31.7987 103.274C31.6697 103.552 31.4639 103.787 31.2055 103.952C30.9471 104.118 30.6469 104.205 30.3402 104.205Z" fill="#FF3E3E"/>
<path d="M18.6346 98.7106C17.3365 98.7109 16.0674 98.3262 14.988 97.6053C13.9085 96.8843 13.0671 95.8593 12.5702 94.6601C12.0733 93.4608 11.9432 92.1412 12.1963 90.868C12.4495 89.5948 13.0746 88.4253 13.9925 87.5074C14.9104 86.5895 16.0799 85.9644 17.3531 85.7112C18.6263 85.4581 19.9459 85.5882 21.1452 86.0851C22.3444 86.582 23.3694 87.4234 24.0904 88.5029C24.8113 89.5823 25.196 90.8514 25.1957 92.1495C25.194 93.8891 24.5022 95.5569 23.2721 96.787C22.042 98.0171 20.3742 98.7089 18.6346 98.7106ZM18.6346 88.803C17.9727 88.8027 17.3255 88.9987 16.775 89.3662C16.2244 89.7338 15.7953 90.2563 15.5417 90.8678C15.2882 91.4792 15.2217 92.1521 15.3506 92.8014C15.4796 93.4506 15.7982 94.0471 16.2661 94.5153C16.7341 94.9834 17.3304 95.3023 17.9795 95.4316C18.6287 95.5608 19.3017 95.4946 19.9133 95.2414C20.5249 94.9882 21.0476 94.5592 21.4154 94.0089C21.7832 93.4585 21.9795 92.8115 21.9795 92.1495C21.9791 91.2624 21.6266 90.4117 20.9994 89.7842C20.3723 89.1568 19.5217 88.8039 18.6346 88.803Z" fill="#FF3E3E"/>
</svg>
