<svg width="16" height="15" viewBox="0 0 16 15" fill="none" xmlns="http://www.w3.org/2000/svg">
<path d="M15.3793 0.282844C15.2186 0.144111 15.023 0.0519821 14.8137 0.0164319C14.6044 -0.0191184 14.3894 0.00326519 14.1919 0.0811588L0.739649 5.366C0.505211 5.45814 0.306905 5.62371 0.174399 5.83793C0.0418925 6.05216 -0.0176915 6.30353 0.00456056 6.55444C0.0268126 6.80535 0.129704 7.04231 0.297844 7.22987C0.465983 7.41744 0.690331 7.54552 0.937325 7.59496L4.35431 8.27852V12.5464C4.3541 12.7772 4.42238 13.0028 4.55049 13.1947C4.6786 13.3866 4.86077 13.5362 5.07395 13.6245C5.28713 13.7128 5.52172 13.7358 5.74801 13.6907C5.9743 13.6456 6.18211 13.5344 6.34514 13.3711L8.23618 11.4801L11.1063 14.0057C11.3176 14.1934 11.5902 14.2972 11.8728 14.2976C11.9957 14.2974 12.1177 14.2781 12.2346 14.2402C12.4274 14.1791 12.6007 14.0685 12.7374 13.9194C12.874 13.7704 12.9692 13.5881 13.0134 13.3908L15.7551 1.42728C15.8028 1.2204 15.7931 1.00439 15.7268 0.802672C15.6606 0.60095 15.5404 0.421206 15.3793 0.282917V0.282844ZM4.80229 7.17869L1.1662 6.45147L11.3475 2.45159L4.80229 7.17869ZM5.52054 12.5458V9.09029L7.35881 10.7079L5.52054 12.5458ZM11.8766 13.1302L5.87114 7.84526L14.5191 1.59959L11.8766 13.1302Z" fill="white"/>
</svg>
