<svg width="20" height="14" viewBox="0 0 20 14" fill="none" xmlns="http://www.w3.org/2000/svg">
<path d="M19.0087 2.14791C18.9003 1.74712 18.6877 1.38161 18.3923 1.08799C18.0968 0.794358 17.7288 0.582902 17.3251 0.474781C15.8392 0.0781251 9.88281 0.078125 9.88281 0.078125C9.88281 0.078125 3.92641 0.0781249 2.4405 0.472671C2.03665 0.580441 1.66847 0.79178 1.37295 1.08546C1.07743 1.37914 0.864966 1.74483 0.756893 2.1458C0.359375 3.62271 0.359375 6.70312 0.359375 6.70312C0.359375 6.70312 0.359375 9.78354 0.756893 11.2583C0.975847 12.0728 1.62208 12.7142 2.4405 12.9315C3.92641 13.3281 9.88281 13.3281 9.88281 13.3281C9.88281 13.3281 15.8392 13.3281 17.3251 12.9315C18.1457 12.7142 18.7898 12.0728 19.0087 11.2583C19.4062 9.78354 19.4062 6.70312 19.4062 6.70312C19.4062 6.70312 19.4062 3.62271 19.0087 2.14791ZM7.99088 9.53035V3.8759L12.9227 6.68203L7.99088 9.53035Z" fill="white"/>
</svg>
