<svg width="115" height="94" viewBox="0 0 115 94" fill="none" xmlns="http://www.w3.org/2000/svg">
<path d="M37.2434 93.3692H32.539C32.1102 93.3692 31.699 93.2006 31.3959 92.9007C31.0927 92.6007 30.9224 92.1938 30.9224 91.7695C30.9224 91.3453 31.0927 90.9384 31.3959 90.6384C31.699 90.3385 32.1102 90.1699 32.539 90.1699H37.2434C37.6722 90.1699 38.0834 90.3385 38.3866 90.6384C38.6897 90.9384 38.8601 91.3453 38.8601 91.7695C38.8601 92.1938 38.6897 92.6007 38.3866 92.9007C38.0834 93.2006 37.6722 93.3692 37.2434 93.3692Z" fill="#FF3E3E"/>
<path d="M82.8005 93.3692H64.678C64.2492 93.3692 63.838 93.2006 63.5348 92.9007C63.2316 92.6007 63.0613 92.1938 63.0613 91.7696C63.0613 91.3453 63.2316 90.9384 63.5348 90.6385C63.838 90.3385 64.2492 90.1699 64.678 90.1699H82.8005C83.7928 90.1712 84.7451 89.7828 85.4483 89.09C86.1515 88.3973 86.5481 87.4567 86.5511 86.4748V44.0208C86.5502 43.0368 86.1548 42.0934 85.4516 41.3976C84.7484 40.7018 83.7949 40.3106 82.8005 40.3097H7.9016C6.90728 40.311 5.95404 40.7024 5.25095 41.3981C4.54785 42.0938 4.15229 43.037 4.151 44.0208V86.4748C4.15443 87.4565 4.55119 88.3969 5.25429 89.0896C5.95738 89.7823 6.90942 90.1708 7.9016 90.1699H21.2227C21.6515 90.1699 22.0627 90.3385 22.3658 90.6385C22.669 90.9384 22.8393 91.3453 22.8393 91.7696C22.8393 92.1938 22.669 92.6007 22.3658 92.9007C22.0627 93.2006 21.6515 93.3692 21.2227 93.3692H7.9016C6.05216 93.3692 4.27823 92.6433 2.96896 91.3508C1.65969 90.0583 0.922006 88.3048 0.917725 86.4748V44.0208C0.919864 42.1887 1.65635 40.4323 2.96562 39.1368C4.27489 37.8413 6.05002 37.1126 7.9016 37.1105H82.8005C84.6521 37.1126 86.4272 37.8413 87.7365 39.1368C89.0457 40.4323 89.7822 42.1887 89.7844 44.0208V86.4748C89.7801 88.3048 89.0424 90.0583 87.7331 91.3508C86.4239 92.6433 84.6499 93.3692 82.8005 93.3692Z" fill="#FF3E3E"/>
<path d="M53.3614 93.3692H48.56C48.1312 93.3692 47.72 93.2006 47.4169 92.9007C47.1137 92.6007 46.9434 92.1938 46.9434 91.7695C46.9434 91.3453 47.1137 90.9384 47.4169 90.6384C47.72 90.3385 48.1312 90.1699 48.56 90.1699H53.3614C53.7902 90.1699 54.2014 90.3385 54.5046 90.6384C54.8077 90.9384 54.9781 91.3453 54.9781 91.7695C54.9781 92.1938 54.8077 92.6007 54.5046 92.9007C54.2014 93.2006 53.7902 93.3692 53.3614 93.3692Z" fill="#FF3E3E"/>
<path d="M103.081 89.2565C102.859 89.2558 102.639 89.21 102.434 89.1221L87.5161 82.6292C87.2282 82.5049 86.9831 82.3003 86.8109 82.0403C86.6386 81.7804 86.5466 81.4764 86.5461 81.1656V49.3331C86.5466 49.0223 86.6386 48.7183 86.8109 48.4584C86.9831 48.1984 87.2282 47.9938 87.5161 47.8695L102.434 41.3766C102.68 41.2704 102.949 41.2264 103.217 41.2487C103.484 41.2709 103.742 41.3587 103.966 41.5041C104.191 41.6495 104.375 41.8479 104.503 42.0814C104.631 42.315 104.698 42.5763 104.698 42.8418V87.6569C104.698 88.0811 104.527 88.488 104.224 88.7879C103.921 89.0879 103.51 89.2565 103.081 89.2565ZM89.781 80.121L101.464 85.2062V45.2877L89.781 50.3729V80.121Z" fill="#FF3E3E"/>
<path d="M112.466 89.2565H103.081C102.652 89.2565 102.241 89.0879 101.938 88.788C101.635 88.488 101.464 88.0811 101.464 87.6569V42.837C101.464 42.4128 101.635 42.0059 101.938 41.7059C102.241 41.406 102.652 41.2374 103.081 41.2374H112.466C112.894 41.2374 113.306 41.406 113.609 41.7059C113.912 42.0059 114.082 42.4128 114.082 42.837V87.6569C114.082 88.0811 113.912 88.488 113.609 88.788C113.306 89.0879 112.894 89.2565 112.466 89.2565ZM104.698 86.0572H110.849V44.4367H104.698V86.0572Z" fill="#FF3E3E"/>
<path d="M56.6643 40.1801C52.6675 40.1801 48.7605 39.0074 45.4373 36.8103C42.1142 34.6132 39.524 31.4904 37.9945 27.8367C36.4651 24.1831 36.0649 20.1627 36.8446 16.284C37.6243 12.4053 39.549 8.84245 42.3751 6.04606C45.2012 3.24967 48.8019 1.34531 52.7219 0.573788C56.6419 -0.197734 60.705 0.198239 64.3976 1.71163C68.0901 3.22503 71.2461 5.78787 73.4666 9.07608C75.6871 12.3643 76.8723 16.2302 76.8723 20.1849C76.8659 25.486 74.7348 30.5682 70.9464 34.3166C67.1581 38.0651 62.0218 40.1738 56.6643 40.1801ZM56.6643 3.38883C53.307 3.38883 50.0251 4.3739 47.2337 6.21947C44.4422 8.06504 42.2665 10.6882 40.9817 13.7573C39.6969 16.8264 39.3608 20.2035 40.0158 23.4616C40.6707 26.7197 42.2874 29.7125 44.6614 32.0614C47.0353 34.4104 50.0599 36.0101 53.3527 36.6582C56.6455 37.3062 60.0585 36.9736 63.1602 35.7024C66.262 34.4311 68.913 32.2783 70.7783 29.5162C72.6435 26.7541 73.639 23.5068 73.639 20.1849C73.6339 15.7318 71.8438 11.4626 68.6616 8.31388C65.4793 5.16512 61.1647 3.39391 56.6643 3.38883Z" fill="#FF3E3E"/>
<path d="M27.1605 40.18C24.5227 40.18 21.944 39.406 19.7507 37.956C17.5574 36.5059 15.848 34.4448 14.8385 32.0334C13.829 29.622 13.5649 26.9685 14.0795 24.4086C14.5941 21.8486 15.8644 19.4972 17.7296 17.6515C19.5949 15.8059 21.9714 14.549 24.5585 14.0398C27.1457 13.5306 29.8274 13.792 32.2645 14.7908C34.7015 15.7897 36.7845 17.4811 38.2501 19.6513C39.7156 21.8216 40.4978 24.373 40.4978 26.9831C40.4931 30.4817 39.0864 33.8357 36.5862 36.3096C34.086 38.7835 30.6963 40.1754 27.1605 40.18ZM27.1605 16.9855C25.1621 16.9855 23.2086 17.5719 21.547 18.6704C19.8854 19.769 18.5904 21.3304 17.8256 23.1572C17.0609 24.984 16.8608 26.9942 17.2507 28.9336C17.6405 30.8729 18.6028 32.6543 20.0159 34.0525C21.429 35.4507 23.2293 36.4029 25.1893 36.7887C27.1493 37.1744 29.1809 36.9765 31.0271 36.2198C32.8734 35.4631 34.4514 34.1816 35.5617 32.5375C36.6719 30.8934 37.2645 28.9605 37.2645 26.9831C37.2615 24.3325 36.196 21.7913 34.3018 19.917C32.4076 18.0427 29.8393 16.9885 27.1605 16.9855Z" fill="#FF3E3E"/>
<path d="M71.2415 61.5525H46.9919C46.5631 61.5525 46.1519 61.384 45.8487 61.084C45.5456 60.784 45.3752 60.3772 45.3752 59.9529V49.6834C45.3752 49.2591 45.5456 48.8522 45.8487 48.5523C46.1519 48.2523 46.5631 48.0837 46.9919 48.0837H71.2415C71.6702 48.0837 72.0814 48.2523 72.3846 48.5523C72.6878 48.8522 72.8581 49.2591 72.8581 49.6834V59.9529C72.8581 60.3772 72.6878 60.784 72.3846 61.084C72.0814 61.384 71.6702 61.5525 71.2415 61.5525ZM48.6085 58.3533H69.6248V51.283H48.6085V58.3533Z" fill="#FF3E3E"/>
</svg>
