<svg width="113" height="101" viewBox="0 0 113 101" fill="none" xmlns="http://www.w3.org/2000/svg">
<path d="M21.8132 100.769C21.3867 100.769 20.9777 100.6 20.6761 100.298C20.3745 99.9969 20.2051 99.5879 20.2051 99.1614V74.2357C20.2051 73.8092 20.3745 73.4002 20.6761 73.0986C20.9777 72.797 21.3867 72.6276 21.8132 72.6276C22.2397 72.6276 22.6487 72.797 22.9503 73.0986C23.2519 73.4002 23.4213 73.8092 23.4213 74.2357V96.5771C27.8709 94.2856 37.7865 88.662 43.3811 81.4963C43.648 81.174 44.03 80.9683 44.446 80.9231C44.862 80.8779 45.2793 80.9966 45.6092 81.2541C45.9391 81.5116 46.1556 81.8875 46.2128 82.302C46.27 82.7166 46.1634 83.1371 45.9155 83.4743C38.0905 93.4976 23.1093 100.34 22.4757 100.626C22.2674 100.72 22.0416 100.769 21.8132 100.769Z" fill="#FF3E3E"/>
<path d="M87.5189 11.037C87.2576 11.0372 87.0002 10.9732 86.7695 10.8504C85.3973 10.1275 83.9895 9.47433 82.5515 8.89335C82.1646 8.72777 81.8581 8.41716 81.6977 8.02816C81.5372 7.63917 81.5356 7.20278 81.6933 6.81263C81.8509 6.42248 82.1551 6.10965 82.5408 5.94126C82.9264 5.77287 83.3626 5.76234 83.7559 5.91192C85.2984 6.53128 86.8083 7.22903 88.2796 8.00246C88.5971 8.17038 88.8492 8.43976 88.9958 8.76767C89.1425 9.09557 89.1751 9.46312 89.0885 9.81172C89.0019 10.1603 88.8011 10.4699 88.5181 10.6911C88.2351 10.9123 87.8861 11.0323 87.527 11.0321L87.5189 11.037Z" fill="#FF3E3E"/>
<path d="M21.8116 75.8438C21.5168 75.8442 21.2278 75.7624 20.977 75.6074C7.78246 67.5605 0.216309 55.6203 0.216309 42.8454C0.216309 19.6774 25.3543 0.748384 56.2541 0.648682C56.6805 0.648682 57.0896 0.818107 57.3912 1.11969C57.6927 1.42126 57.8622 1.83029 57.8622 2.25679C57.8622 2.68329 57.6927 3.09232 57.3912 3.39389C57.0896 3.69547 56.6805 3.8649 56.2541 3.8649C27.1328 3.95817 3.43252 21.4447 3.43252 42.8454C3.43252 54.4721 10.4374 65.412 22.651 72.8624C22.9508 73.045 23.1825 73.3207 23.311 73.6473C23.4394 73.974 23.4574 74.3337 23.3623 74.6715C23.2672 75.0094 23.0641 75.3069 22.7841 75.5185C22.5041 75.7302 22.1626 75.8444 21.8116 75.8438Z" fill="#FF3E3E"/>
<path d="M72.4201 5.61779C72.2961 5.61834 72.1724 5.60376 72.0519 5.57437C70.6046 5.23828 69.1396 4.95686 67.5588 4.71404C67.1499 4.63645 66.787 4.40331 66.5464 4.06365C66.3058 3.72399 66.2062 3.30426 66.2687 2.89273C66.3312 2.48121 66.5508 2.10994 66.8814 1.85699C67.212 1.60404 67.6277 1.48913 68.0413 1.53641C69.7057 1.7905 71.2575 2.088 72.7788 2.44339C73.1628 2.5327 73.5006 2.75997 73.728 3.08201C73.9555 3.40406 74.0567 3.79844 74.0124 4.19021C73.9682 4.58199 73.7815 4.94385 73.488 5.20704C73.1944 5.47023 72.8144 5.61641 72.4201 5.61779Z" fill="#FF3E3E"/>
<path d="M56.5002 85.0582C52.4428 85.0583 48.392 84.7287 44.388 84.0725C44.1795 84.0382 43.9799 83.9633 43.8004 83.852C43.6209 83.7406 43.4651 83.5949 43.3419 83.4234C43.2188 83.2518 43.1306 83.0576 43.0824 82.852C43.0342 82.6463 43.0271 82.4332 43.0613 82.2247C43.0955 82.0163 43.1704 81.8167 43.2818 81.6372C43.3932 81.4577 43.5388 81.3019 43.7104 81.1787C43.8819 81.0555 44.0761 80.9673 44.2818 80.9192C44.4874 80.871 44.7006 80.8638 44.909 80.8981C48.7407 81.5267 52.6173 81.8424 56.5002 81.842C85.7678 81.842 109.568 64.349 109.568 42.8454C109.568 33.3575 104.85 24.1913 96.2848 17.0642C95.9571 16.7912 95.7512 16.3993 95.7124 15.9745C95.6737 15.5497 95.8052 15.1269 96.0782 14.7992C96.3512 14.4714 96.7431 14.2655 97.1679 14.2267C97.5927 14.188 98.0155 14.3196 98.3432 14.5925C107.656 22.3452 112.784 32.3782 112.784 42.8454C112.784 66.1211 87.5367 85.0582 56.5002 85.0582Z" fill="#FF3E3E"/>
<path d="M52.2481 60.1117C50.6848 60.1083 49.1865 59.4858 48.081 58.3803C46.9756 57.2748 46.353 55.7765 46.3496 54.2132V31.4938C46.3494 30.3963 46.6557 29.3205 47.234 28.3877C47.8123 27.4549 48.6397 26.7022 49.6229 26.2143C50.606 25.7265 51.7059 25.523 52.7985 25.6267C53.8911 25.7304 54.9331 26.1373 55.8069 26.8013L70.7623 38.161C71.4855 38.711 72.0717 39.4207 72.4753 40.2347C72.8789 41.0487 73.0889 41.9449 73.0889 42.8535C73.0889 43.762 72.8789 44.6583 72.4753 45.4723C72.0717 46.2863 71.4855 46.996 70.7623 47.5459L55.8069 58.9056C54.7847 59.6865 53.5345 60.1103 52.2481 60.1117ZM52.2481 28.8083C51.8308 28.8098 51.4196 28.9084 51.0469 29.0961C50.5969 29.3132 50.2181 29.654 49.9549 30.0787C49.6918 30.5033 49.5551 30.9942 49.561 31.4938V54.2132C49.5609 54.7116 49.7001 55.2002 49.9627 55.6238C50.2254 56.0474 50.6012 56.3893 51.0477 56.6108C51.4943 56.8323 51.9938 56.9247 52.49 56.8775C52.9863 56.8304 53.4594 56.6456 53.8563 56.3439L68.8117 44.9842C69.14 44.7343 69.4061 44.4118 69.5893 44.0421C69.7725 43.6724 69.8678 43.2653 69.8678 42.8527C69.8678 42.4401 69.7725 42.033 69.5893 41.6633C69.4061 41.2935 69.14 40.9711 68.8117 40.7211L53.8563 29.3631C53.3975 29.0067 52.8339 28.8117 52.253 28.8083H52.2481Z" fill="#FF3E3E"/>
</svg>
