<svg width="20" height="20" viewBox="0 0 20 20" fill="none" xmlns="http://www.w3.org/2000/svg">
<path d="M13.6188 11.7896C13.4111 11.6829 12.3767 11.1761 12.1843 11.1075C11.9919 11.0351 11.8509 11.0009 11.7118 11.2142C11.5708 11.4257 11.1708 11.8962 11.045 12.0391C10.9231 12.1801 10.7993 12.1972 10.5916 12.0925C9.35716 11.4752 8.54751 10.9913 7.73405 9.59492C7.51878 9.22343 7.94932 9.2501 8.35129 8.44807C8.41987 8.30709 8.38558 8.18707 8.33224 8.08039C8.2789 7.97371 7.85978 6.94116 7.68452 6.52014C7.51497 6.11055 7.3397 6.16771 7.21206 6.16009C7.09014 6.15247 6.95107 6.15247 6.81009 6.15247C6.66912 6.15247 6.44241 6.20581 6.25 6.41346C6.05759 6.62492 5.51465 7.13357 5.51465 8.16612C5.51465 9.19866 6.26715 10.1988 6.37002 10.3398C6.47671 10.4808 7.85026 12.5992 9.95916 13.5117C11.2927 14.0871 11.8147 14.1366 12.4815 14.0375C12.8872 13.9766 13.7236 13.5308 13.8969 13.0374C14.0703 12.5459 14.0703 12.1248 14.0189 12.0372C13.9674 11.9439 13.8264 11.8905 13.6188 11.7896Z" fill="white"/>
<path d="M17.6521 6.80782C17.2216 5.7848 16.6043 4.86656 15.8175 4.07786C15.0308 3.29107 14.1125 2.67192 13.0876 2.24328C12.0398 1.80321 10.9272 1.58032 9.7804 1.58032H9.7423C8.58783 1.58604 7.46956 1.81465 6.41796 2.26424C5.40256 2.69859 4.49194 3.31584 3.71277 4.10263C2.9336 4.88942 2.32207 5.80385 1.89915 6.82306C1.46099 7.87846 1.24 9.00055 1.24571 10.155C1.25143 11.4771 1.56767 12.7897 2.16014 13.9632V16.8589C2.16014 17.3428 2.55259 17.7353 3.03647 17.7353H5.93408C7.1076 18.3277 8.42018 18.644 9.7423 18.6497H9.7823C10.9234 18.6497 12.0303 18.4287 13.0724 17.9963C14.0916 17.5714 15.0079 16.9618 15.7928 16.1826C16.5796 15.4035 17.1987 14.4928 17.6312 13.4774C18.0808 12.4259 18.3094 11.3076 18.3151 10.1531C18.3208 8.99293 18.096 7.86703 17.6521 6.80782ZM14.7736 15.152C13.4381 16.4741 11.6664 17.2018 9.7804 17.2018H9.74801C8.59926 17.1961 7.45813 16.9104 6.45035 16.3731L6.29032 16.2874H3.60799V13.6051L3.52226 13.4451C2.98504 12.4373 2.69928 11.2961 2.69356 10.1474C2.68594 8.24805 3.41177 6.46491 4.74341 5.12184C6.07315 3.77877 7.85057 3.03579 9.74992 3.02817H9.7823C10.7348 3.02817 11.6588 3.21296 12.5294 3.57873C13.3791 3.93498 14.1411 4.44744 14.7964 5.10279C15.4499 5.75622 15.9642 6.52015 16.3205 7.36981C16.6901 8.24995 16.8749 9.18343 16.871 10.1474C16.8596 12.0448 16.1147 13.8223 14.7736 15.152Z" fill="white"/>
</svg>
